<svg version="1.1" id="Layer_1" xmlns="http://www.w3.org/2000/svg" xmlns:xlink="http://www.w3.org/1999/xlink" x="0px" y="0px"
	 width="100%" viewBox="0 0 406 404" enable-background="new 0 0 406 404" xml:space="preserve">
<path fill="#FEFEFE" opacity="1.000000" stroke="none" 
	d="
M1.000000,156.000000 
	C1.000000,104.015892 1.000000,52.531784 1.000000,1.023837 
	C136.275681,1.023837 271.551361,1.023837 406.913513,1.023837 
	C406.913513,135.567413 406.913513,270.134918 406.913513,404.851196 
	C271.666779,404.851196 136.333420,404.851196 1.000000,404.851196 
	C1.000000,322.115387 1.000000,239.307693 1.000000,156.000000 
M139.997925,235.194458 
	C139.378830,233.219543 138.262100,231.253998 138.224762,229.268143 
	C138.039993,219.439835 138.162338,209.606079 138.133804,199.774368 
	C138.108276,190.977341 134.516174,187.232544 125.909851,184.814072 
	C112.806290,181.131821 99.416077,177.865738 87.014656,172.440826 
	C71.314232,165.572815 58.582275,154.502136 54.814926,136.710648 
	C53.194672,129.058914 53.624775,120.875565 53.847794,112.954132 
	C54.172306,101.427994 63.806725,94.519424 75.174385,96.469246 
	C80.642220,97.407097 86.387901,97.749863 91.896294,97.214699 
	C103.636482,96.074104 113.638153,90.134392 123.435234,84.101097 
	C131.497559,79.136108 138.994904,73.178284 147.307571,68.711891 
	C161.817764,60.915573 177.602524,61.905285 193.234695,64.105576 
	C224.011719,68.437569 244.947830,87.290680 250.796539,117.633728 
	C253.322296,130.737350 252.794998,144.422989 253.757889,157.836807 
	C254.328125,165.780350 254.423584,173.839828 255.923141,181.617615 
	C258.969788,197.419846 267.860413,210.403488 277.750458,222.674057 
	C287.574829,234.863144 298.149719,246.478653 307.487671,259.021576 
	C323.543671,280.588348 336.683624,303.972931 348.171204,328.278503 
	C348.649109,329.289612 349.272186,330.232147 350.196533,331.853760 
	C352.132843,329.568726 353.776917,327.776611 355.258209,325.858826 
	C394.573700,274.957764 406.712158,217.689072 391.337982,155.779572 
	C368.082733,62.134190 278.245941,-4.372026 173.416611,10.494995 
	C111.345161,19.298044 64.036179,52.365742 32.107983,106.319534 
	C9.087666,145.220367 1.578988,187.613754 7.916352,232.314804 
	C14.558534,279.165863 35.647175,318.725311 70.976601,349.961334 
	C116.153717,389.903961 169.231720,405.965210 229.125992,397.962738 
	C273.253052,392.066956 310.662109,372.445587 341.959656,340.901428 
	C344.120911,338.723114 344.262329,336.967163 343.006317,334.347687 
	C328.421234,303.929108 312.286652,274.516602 289.900208,248.915039 
	C281.573364,239.392303 273.671143,229.465195 266.060974,219.356842 
	C254.933609,204.576691 247.459030,188.187393 246.754257,169.354614 
	C246.306030,157.377258 246.675156,145.359711 245.945267,133.404907 
	C245.039612,118.571686 241.385727,104.478539 231.793579,92.554306 
	C220.855362,78.956696 205.871277,73.229431 189.227325,71.017601 
	C175.911850,69.248093 162.514282,68.415894 150.222290,75.326454 
	C144.599335,78.487679 139.685028,82.889000 134.144073,86.220108 
	C115.109337,97.663406 96.302147,109.661438 72.141602,103.845901 
	C65.729500,102.302490 61.407879,106.885826 60.987160,113.570488 
	C60.820084,116.225113 61.196323,118.926064 60.901688,121.558517 
	C59.223312,136.553940 65.348732,148.028412 76.569618,157.397919 
	C85.728653,165.045761 96.475708,169.447159 107.698326,172.784348 
	C114.701385,174.866806 121.942688,176.138275 128.977249,178.126846 
	C140.526306,181.391602 145.522263,187.847122 145.793884,199.870377 
	C146.008377,209.364166 145.996857,218.869919 145.761566,228.362335 
	C145.699478,230.867386 144.437637,233.342682 143.043686,235.964127 
	C142.122513,235.951523 141.201324,235.938919 139.997925,235.194458 
z"/>
<path fill="#4BA39E" opacity="1.000000" stroke="none" 
	d="
M143.726715,235.831650 
	C144.437637,233.342682 145.699478,230.867386 145.761566,228.362335 
	C145.996857,218.869919 146.008377,209.364166 145.793884,199.870377 
	C145.522263,187.847122 140.526306,181.391602 128.977249,178.126846 
	C121.942688,176.138275 114.701385,174.866806 107.698326,172.784348 
	C96.475708,169.447159 85.728653,165.045761 76.569618,157.397919 
	C65.348732,148.028412 59.223312,136.553940 60.901688,121.558517 
	C61.196323,118.926064 60.820084,116.225113 60.987160,113.570488 
	C61.407879,106.885826 65.729500,102.302490 72.141602,103.845901 
	C96.302147,109.661438 115.109337,97.663406 134.144073,86.220108 
	C139.685028,82.889000 144.599335,78.487679 150.222290,75.326454 
	C162.514282,68.415894 175.911850,69.248093 189.227325,71.017601 
	C205.871277,73.229431 220.855362,78.956696 231.793579,92.554306 
	C241.385727,104.478539 245.039612,118.571686 245.945267,133.404907 
	C246.675156,145.359711 246.306030,157.377258 246.754257,169.354614 
	C247.459030,188.187393 254.933609,204.576691 266.060974,219.356842 
	C273.671143,229.465195 281.573364,239.392303 289.900208,248.915039 
	C312.286652,274.516602 328.421234,303.929108 343.006317,334.347687 
	C344.262329,336.967163 344.120911,338.723114 341.959656,340.901428 
	C310.662109,372.445587 273.253052,392.066956 229.125992,397.962738 
	C169.231720,405.965210 116.153717,389.903961 70.976601,349.961334 
	C35.647175,318.725311 14.558534,279.165863 7.916352,232.314804 
	C1.578988,187.613754 9.087666,145.220367 32.107983,106.319534 
	C64.036179,52.365742 111.345161,19.298044 173.416611,10.494995 
	C278.245941,-4.372026 368.082733,62.134190 391.337982,155.779572 
	C406.712158,217.689072 394.573700,274.957764 355.258209,325.858826 
	C353.776917,327.776611 352.132843,329.568726 350.196533,331.853760 
	C349.272186,330.232147 348.649109,329.289612 348.171204,328.278503 
	C336.683624,303.972931 323.543671,280.588348 307.487671,259.021576 
	C298.149719,246.478653 287.574829,234.863144 277.750458,222.674057 
	C267.860413,210.403488 258.969788,197.419846 255.923141,181.617615 
	C254.423584,173.839828 254.328125,165.780350 253.757889,157.836807 
	C252.794998,144.422989 253.322296,130.737350 250.796539,117.633728 
	C244.947830,87.290680 224.011719,68.437569 193.234695,64.105576 
	C177.602524,61.905285 161.817764,60.915573 147.307571,68.711891 
	C138.994904,73.178284 131.497559,79.136108 123.435234,84.101097 
	C113.638153,90.134392 103.636482,96.074104 91.896294,97.214699 
	C86.387901,97.749863 80.642220,97.407097 75.174385,96.469246 
	C63.806725,94.519424 54.172306,101.427994 53.847794,112.954132 
	C53.624775,120.875565 53.194672,129.058914 54.814926,136.710648 
	C58.582275,154.502136 71.314232,165.572815 87.014656,172.440826 
	C99.416077,177.865738 112.806290,181.131821 125.909851,184.814072 
	C134.516174,187.232544 138.108276,190.977341 138.133804,199.774368 
	C138.162338,209.606079 138.039993,219.439835 138.224762,229.268143 
	C138.262100,231.253998 139.378830,233.219543 139.671555,235.713577 
	C137.180649,236.268646 135.016205,236.328995 132.851562,236.336670 
	C116.584961,236.394348 106.415543,244.846848 103.041016,260.761017 
	C101.047005,270.164703 97.289848,278.173706 87.353500,282.216156 
	C81.753311,284.494476 76.706100,288.850372 77.284904,295.740570 
	C77.896446,303.020538 80.176575,309.994904 84.941528,315.939575 
	C86.660530,318.084167 87.916382,320.671387 89.035736,323.209991 
	C91.236198,328.200592 94.420761,330.971741 100.328903,331.338348 
	C108.570915,331.849731 117.082542,332.392670 124.862709,334.862671 
	C134.581238,337.948029 141.396637,344.694550 143.354340,355.682129 
	C144.861160,364.139252 142.691513,371.826202 140.513260,379.676880 
	C139.851227,382.062958 138.719940,384.880310 142.221542,385.912872 
	C145.678619,386.932343 146.983063,384.410004 147.684464,381.623138 
	C148.859451,376.954376 150.260147,372.309174 150.979752,367.565125 
	C153.588333,350.367889 146.402832,336.803040 130.841721,329.107239 
	C121.933975,324.701904 112.266495,324.425659 102.620308,323.895508 
	C100.637321,323.786530 97.813606,323.235443 96.915619,321.873718 
	C93.209068,316.253143 89.253548,310.551636 86.955109,304.303925 
	C83.328522,294.446014 82.816620,293.215668 93.051208,287.283875 
	C97.590355,284.653076 101.973961,280.767731 104.776978,276.393738 
	C107.825089,271.637238 109.288223,265.744568 110.840355,260.179382 
	C112.917915,252.730240 116.898048,246.968292 124.494263,245.080612 
	C129.231628,243.903381 134.361771,244.171524 139.321854,244.054398 
	C149.157852,243.822159 157.471100,241.352188 162.602692,231.768250 
	C166.624527,224.256958 171.614868,217.264252 176.628357,209.322937 
	C177.469025,210.548355 177.884079,211.281494 178.418655,211.913544 
	C187.534851,222.691833 188.931320,235.719589 188.695312,248.990204 
	C188.575180,255.744858 190.779007,260.694519 195.767792,265.136993 
	C207.824402,275.873291 217.007935,288.879761 224.534164,303.108398 
	C237.137848,326.936188 244.988998,352.355560 250.227310,378.695801 
	C250.820724,381.679626 250.241348,387.111084 255.549576,385.855621 
	C260.578644,384.666199 258.100647,379.993073 257.294312,377.055725 
	C252.386841,359.178284 247.977783,341.100830 241.834244,323.641907 
	C234.168381,301.856842 223.127060,281.526428 206.293320,265.403381 
	C198.623688,258.057556 195.489609,250.754242 195.671707,240.240997 
	C195.887070,227.808594 192.376450,215.853180 183.422684,206.351532 
	C178.510452,201.138763 172.777725,201.635895 168.916977,207.635986 
	C164.441498,214.591492 160.182617,221.686432 155.835983,228.724716 
	C153.051712,233.233170 149.411057,236.270386 143.726715,235.831650 
M227.228790,158.579941 
	C224.587631,170.586731 216.952637,176.832108 204.856445,177.651367 
	C200.214996,177.965729 195.482483,178.255676 190.888626,177.721405 
	C172.472900,175.579575 162.972061,163.547882 165.949570,145.212402 
	C167.348740,136.596252 169.691315,127.861229 173.290207,119.945648 
	C177.454865,110.785660 183.439880,102.448303 188.707275,93.798058 
	C190.081650,91.541039 190.838272,89.077637 188.093735,87.899506 
	C186.737640,87.317390 183.739929,88.204315 182.768600,89.437561 
	C170.085693,105.540230 161.578262,123.601311 158.261383,143.933624 
	C155.220261,162.575607 164.579056,178.496597 181.701019,183.379562 
	C191.109756,186.062790 200.744080,186.111603 210.372482,184.264069 
	C220.174576,182.383194 227.242676,177.431946 231.467438,167.929688 
	C237.487427,154.389618 240.054718,140.299149 239.702820,125.666496 
	C239.584702,120.754448 238.350327,115.787239 236.959976,111.040359 
	C236.568832,109.704994 233.813110,109.062218 232.141953,108.101768 
	C231.451874,109.785278 229.832779,111.723846 230.214218,113.113167 
	C234.403778,128.372620 231.964935,143.143478 227.228790,158.579941 
M151.832916,96.304504 
	C149.080261,97.047127 146.275665,98.504547 143.591156,98.309448 
	C141.386429,98.149223 139.443359,95.683319 137.158478,94.888794 
	C135.561707,94.333527 133.583878,94.874092 131.776245,94.925217 
	C132.030869,96.837334 131.588776,99.379860 132.654694,100.557907 
	C138.954071,107.519951 150.046066,108.027893 156.955048,101.902512 
	C158.858536,100.214928 161.625977,98.412148 159.297348,95.308502 
	C156.925110,92.146767 154.649216,94.365456 151.832916,96.304504 
M118.586655,279.087311 
	C124.394569,282.380859 129.760635,281.154785 134.761414,277.344727 
	C136.861679,275.744568 139.441650,273.808380 137.297256,270.833679 
	C135.228195,267.963440 132.759552,269.290741 130.472107,271.132843 
	C127.126198,273.827423 123.712395,274.208527 120.197990,271.215759 
	C118.121140,269.447174 115.255150,267.573151 113.594879,270.864288 
	C112.858025,272.324951 114.868477,275.269135 115.852982,277.439606 
	C116.139084,278.070404 117.189850,278.354340 118.586655,279.087311 
z"/>
<path fill="#040808" opacity="1.000000" stroke="none" 
	d="
M143.385193,235.897888 
	C149.411057,236.270386 153.051712,233.233170 155.835983,228.724716 
	C160.182617,221.686432 164.441498,214.591492 168.916977,207.635986 
	C172.777725,201.635895 178.510452,201.138763 183.422684,206.351532 
	C192.376450,215.853180 195.887070,227.808594 195.671707,240.240997 
	C195.489609,250.754242 198.623688,258.057556 206.293320,265.403381 
	C223.127060,281.526428 234.168381,301.856842 241.834244,323.641907 
	C247.977783,341.100830 252.386841,359.178284 257.294312,377.055725 
	C258.100647,379.993073 260.578644,384.666199 255.549576,385.855621 
	C250.241348,387.111084 250.820724,381.679626 250.227310,378.695801 
	C244.988998,352.355560 237.137848,326.936188 224.534164,303.108398 
	C217.007935,288.879761 207.824402,275.873291 195.767792,265.136993 
	C190.779007,260.694519 188.575180,255.744858 188.695312,248.990204 
	C188.931320,235.719589 187.534851,222.691833 178.418655,211.913544 
	C177.884079,211.281494 177.469025,210.548355 176.628357,209.322937 
	C171.614868,217.264252 166.624527,224.256958 162.602692,231.768250 
	C157.471100,241.352188 149.157852,243.822159 139.321854,244.054398 
	C134.361771,244.171524 129.231628,243.903381 124.494263,245.080612 
	C116.898048,246.968292 112.917915,252.730240 110.840355,260.179382 
	C109.288223,265.744568 107.825089,271.637238 104.776978,276.393738 
	C101.973961,280.767731 97.590355,284.653076 93.051208,287.283875 
	C82.816620,293.215668 83.328522,294.446014 86.955109,304.303925 
	C89.253548,310.551636 93.209068,316.253143 96.915619,321.873718 
	C97.813606,323.235443 100.637321,323.786530 102.620308,323.895508 
	C112.266495,324.425659 121.933975,324.701904 130.841721,329.107239 
	C146.402832,336.803040 153.588333,350.367889 150.979752,367.565125 
	C150.260147,372.309174 148.859451,376.954376 147.684464,381.623138 
	C146.983063,384.410004 145.678619,386.932343 142.221542,385.912872 
	C138.719940,384.880310 139.851227,382.062958 140.513260,379.676880 
	C142.691513,371.826202 144.861160,364.139252 143.354340,355.682129 
	C141.396637,344.694550 134.581238,337.948029 124.862709,334.862671 
	C117.082542,332.392670 108.570915,331.849731 100.328903,331.338348 
	C94.420761,330.971741 91.236198,328.200592 89.035736,323.209991 
	C87.916382,320.671387 86.660530,318.084167 84.941528,315.939575 
	C80.176575,309.994904 77.896446,303.020538 77.284904,295.740570 
	C76.706100,288.850372 81.753311,284.494476 87.353500,282.216156 
	C97.289848,278.173706 101.047005,270.164703 103.041016,260.761017 
	C106.415543,244.846848 116.584961,236.394348 132.851562,236.336670 
	C135.016205,236.328995 137.180649,236.268646 139.812668,236.079498 
	C141.201324,235.938919 142.122513,235.951523 143.385193,235.897888 
z"/>
<path fill="#F8FCFB" opacity="1.000000" stroke="none" 
	d="
M227.353210,158.201721 
	C231.964935,143.143478 234.403778,128.372620 230.214218,113.113167 
	C229.832779,111.723846 231.451874,109.785278 232.141953,108.101768 
	C233.813110,109.062218 236.568832,109.704994 236.959976,111.040359 
	C238.350327,115.787239 239.584702,120.754448 239.702820,125.666496 
	C240.054718,140.299149 237.487427,154.389618 231.467438,167.929688 
	C227.242676,177.431946 220.174576,182.383194 210.372482,184.264069 
	C200.744080,186.111603 191.109756,186.062790 181.701019,183.379562 
	C164.579056,178.496597 155.220261,162.575607 158.261383,143.933624 
	C161.578262,123.601311 170.085693,105.540230 182.768600,89.437561 
	C183.739929,88.204315 186.737640,87.317390 188.093735,87.899506 
	C190.838272,89.077637 190.081650,91.541039 188.707275,93.798058 
	C183.439880,102.448303 177.454865,110.785660 173.290207,119.945648 
	C169.691315,127.861229 167.348740,136.596252 165.949570,145.212402 
	C162.972061,163.547882 172.472900,175.579575 190.888626,177.721405 
	C195.482483,178.255676 200.214996,177.965729 204.856445,177.651367 
	C216.952637,176.832108 224.587631,170.586731 227.353210,158.201721 
z"/>
<path fill="#F8FBFB" opacity="1.000000" stroke="none" 
	d="
M152.153275,96.088043 
	C154.649216,94.365456 156.925110,92.146767 159.297348,95.308502 
	C161.625977,98.412148 158.858536,100.214928 156.955048,101.902512 
	C150.046066,108.027893 138.954071,107.519951 132.654694,100.557907 
	C131.588776,99.379860 132.030869,96.837334 131.776245,94.925217 
	C133.583878,94.874092 135.561707,94.333527 137.158478,94.888794 
	C139.443359,95.683319 141.386429,98.149223 143.591156,98.309448 
	C146.275665,98.504547 149.080261,97.047127 152.153275,96.088043 
z"/>
<path fill="#040A09" opacity="1.000000" stroke="none" 
	d="
M118.238373,278.942291 
	C117.189850,278.354340 116.139084,278.070404 115.852982,277.439606 
	C114.868477,275.269135 112.858025,272.324951 113.594879,270.864288 
	C115.255150,267.573151 118.121140,269.447174 120.197990,271.215759 
	C123.712395,274.208527 127.126198,273.827423 130.472107,271.132843 
	C132.759552,269.290741 135.228195,267.963440 137.297256,270.833679 
	C139.441650,273.808380 136.861679,275.744568 134.761414,277.344727 
	C129.760635,281.154785 124.394569,282.380859 118.238373,278.942291 
z"/>
</svg>